<svg width="252" height="164" viewBox="0 0 252 164" fill="none" xmlns="http://www.w3.org/2000/svg">
<g clip-path="url(#clip0_2_596)">
<path d="M127.898 27.8624C126.45 27.8624 125.013 28.1103 123.648 28.5954L101.398 36.5065L127.898 46.5788L128.266 46.2928V27.8703C128.143 27.8667 128.021 27.8624 127.898 27.8624Z" fill="#05858D"/>
<path d="M113.931 32.0505L101.398 36.5065L113.789 41.2161C111 38.8449 111.063 34.3381 113.931 32.0505Z" fill="#05858D"/>
<path d="M132.148 28.5954C130.783 28.1103 129.346 27.8624 127.898 27.8624V46.4304L154.398 36.5065L132.148 28.5954Z" fill="#0296E5"/>
<path d="M127.898 45.9851L123.417 51.281C123.045 51.7938 122.38 51.9999 121.783 51.7866L101.398 44.495V64.1289C101.398 65.2928 102.129 66.3312 103.225 66.7232L124.307 74.2638C125.459 74.6759 126.674 74.8867 127.898 74.8867C128.02 74.8867 128.143 74.883 128.265 74.8788V46.4317L127.898 45.9851Z" fill="#0296E5"/>
<path d="M106.703 65.6452V46.3925L101.398 44.4949V64.1288C101.398 65.2927 102.129 66.331 103.225 66.7231L107.997 68.4297C107.193 67.7497 106.703 66.7403 106.703 65.6452Z" fill="#05858D"/>
<path d="M134.012 51.935C133.416 52.1483 132.751 51.9423 132.379 51.4294L127.898 45.9852V74.8867C129.122 74.8867 130.336 74.6761 131.489 74.2638L152.571 66.7232C153.667 66.3312 154.398 65.2928 154.398 64.1289V44.6435L134.012 51.935Z" fill="#0296E5"/>
<path d="M140.396 4.42234C139.164 3.79221 138.157 2.78415 137.53 1.55061C137.394 1.28267 137.12 1.11241 136.82 1.11241C136.519 1.11241 136.246 1.28267 136.109 1.55061C135.482 2.78415 134.476 3.79206 133.244 4.42234C132.977 4.5589 132.807 4.83188 132.807 5.13188V5.15148C132.807 5.44821 132.972 5.72208 133.236 5.85701C134.464 6.48328 135.468 7.48466 136.097 8.71078C136.232 8.97411 136.505 9.1374 136.801 9.1374H136.838C137.134 9.1374 137.408 8.97411 137.543 8.71078C138.172 7.48466 139.176 6.48328 140.404 5.85701C140.668 5.72223 140.832 5.44836 140.832 5.15148V5.13188C140.832 4.83203 140.663 4.55905 140.396 4.42234Z" fill="#FFE02F"/>
<path d="M122.43 7.71351C121.508 7.24192 120.755 6.48757 120.285 5.56443C120.183 5.36389 119.979 5.23653 119.753 5.23653C119.528 5.23653 119.324 5.36389 119.222 5.56443C118.752 6.48757 117.999 7.24192 117.077 7.71351C116.877 7.81578 116.751 8.02003 116.751 8.24447V8.25917C116.751 8.48123 116.874 8.68622 117.072 8.78716C117.99 9.25578 118.742 10.0052 119.213 10.9229C119.314 11.12 119.518 11.2422 119.74 11.2422H119.768C119.989 11.2422 120.194 11.12 120.295 10.9229C120.766 10.0052 121.517 9.25578 122.436 8.78716C122.634 8.68622 122.757 8.48123 122.757 8.25917V8.24447C122.756 8.02003 122.629 7.81578 122.43 7.71351Z" fill="#FFEA7E"/>
<path d="M136.242 5.85701C135.977 5.72223 135.813 5.44836 135.813 5.15148V5.13188C135.813 4.83188 135.983 4.5589 136.25 4.42234C137.05 4.01279 137.755 3.44278 138.323 2.7558C138.017 2.38573 137.75 1.98242 137.53 1.55061C137.394 1.28267 137.12 1.11241 136.82 1.11241C136.519 1.11241 136.246 1.28267 136.109 1.55061C135.482 2.78415 134.476 3.79206 133.244 4.42234C132.977 4.5589 132.807 4.83188 132.807 5.13188V5.15148C132.807 5.44821 132.972 5.72208 133.236 5.85701C134.464 6.48328 135.468 7.48466 136.097 8.71078C136.232 8.97411 136.505 9.1374 136.801 9.1374H136.838C137.134 9.1374 137.408 8.97411 137.543 8.71078C137.76 8.28772 138.023 7.89213 138.323 7.52875C137.753 6.83909 137.046 6.26715 136.242 5.85701Z" fill="#FBC700"/>
<path d="M119.669 8.78716C119.471 8.68622 119.348 8.48123 119.348 8.25917V8.24447C119.348 8.02003 119.475 7.81564 119.675 7.71351C120.196 7.44707 120.66 7.08785 121.052 6.66153C120.75 6.33319 120.49 5.9661 120.285 5.56443C120.183 5.36389 119.979 5.23653 119.754 5.23653C119.529 5.23653 119.324 5.36389 119.222 5.56443C118.752 6.48757 117.999 7.24192 117.077 7.71351C116.878 7.81578 116.751 8.02003 116.751 8.24447V8.25917C116.751 8.48123 116.874 8.68622 117.071 8.78716C117.99 9.25578 118.742 10.0052 119.213 10.9229C119.314 11.12 119.518 11.2422 119.74 11.2422H119.768C119.989 11.2422 120.194 11.12 120.295 10.9229C120.498 10.5279 120.755 10.1664 121.053 9.8427C120.658 9.41446 120.192 9.05405 119.669 8.78716Z" fill="#FFE02F"/>
<path d="M158.392 42.0212L154.398 36.5065L127.898 45.9851L132.379 52.1715C132.75 52.6843 133.416 52.8904 134.012 52.677L157.718 44.1978C158.613 43.8782 158.949 42.79 158.392 42.0212Z" fill="#0296E5"/>
<path d="M97.4033 42.0212L101.398 36.5065L127.898 45.9851L123.417 52.1715C123.045 52.6843 122.38 52.8904 121.784 52.677L98.0771 44.1978C97.1832 43.8782 96.8464 42.79 97.4033 42.0212Z" fill="#0296E5"/>
<path d="M101.692 43.5974L105.711 38.0493L101.398 36.5065L97.4033 42.0213C96.8464 42.79 97.1833 43.8782 98.0771 44.198L101.785 45.5242C101.329 45.0054 101.249 44.2088 101.692 43.5974Z" fill="#05858D"/>
<path d="M100.598 35.8536L96.6038 41.3681C95.6112 42.7384 96.21 44.676 97.8044 45.2461L100.387 46.1697V64.1288C100.387 65.7586 101.418 67.2226 102.952 67.7713L124.035 75.312C126.556 76.2139 129.358 76.2446 131.965 75.312L153.048 67.7713C154.582 67.2226 155.614 65.7586 155.614 64.1288V58.4463C155.614 57.8313 155.115 57.333 154.5 57.333C153.885 57.333 153.387 57.8313 153.387 58.4463V64.1288C153.387 64.8205 152.949 65.4419 152.298 65.6749L131.216 73.2155C130.532 73.4599 129.829 73.6248 129.113 73.7085V49.4198L131.58 52.8244C132.233 53.7265 133.431 54.1043 134.49 53.7253C135.669 53.3033 152.865 47.153 153.387 46.9661V53.2508C153.387 53.8657 153.885 54.3641 154.5 54.3641C155.115 54.3641 155.614 53.8657 155.614 53.2508V46.1697L158.196 45.2461C159.789 44.6763 160.39 42.739 159.396 41.368L159.396 41.3681L155.402 35.8536C155.288 35.6961 155.088 35.5341 154.873 35.4577L145.223 32.0266C144.643 31.8201 144.007 32.1231 143.801 32.7026C143.595 33.282 143.898 33.9185 144.477 34.1245L151.186 36.5098L129.113 44.4045V29.029C130.055 29.1197 130.98 29.3256 131.877 29.6444L139.554 32.3743C140.134 32.5806 140.77 32.2778 140.976 31.6983C141.182 31.1189 140.879 30.4824 140.3 30.2764L132.623 27.5465C129.707 26.5098 126.443 26.4561 123.377 27.5465L101.127 35.4577C100.915 35.5332 100.718 35.6888 100.598 35.8536ZM98.4069 42.6744L101.911 37.8361L126.228 46.5335C125.403 47.6727 126.122 46.6796 122.617 51.5185C122.537 51.6296 122.389 51.6748 122.261 51.6289C121.846 51.4808 98.9872 43.3045 98.5542 43.1497C98.3587 43.0796 98.2851 42.8426 98.4069 42.6744ZM103.702 65.6749C103.051 65.442 102.613 64.8205 102.613 64.1288V46.9661L121.511 53.7253C122.579 54.1076 123.769 53.7172 124.416 52.831C124.417 52.8288 124.419 52.8268 124.421 52.8246C124.421 52.8244 124.421 52.8244 124.421 52.8244L126.887 49.4198V73.7084C126.171 73.6246 125.467 73.4597 124.784 73.2155L103.702 65.6749ZM157.593 42.6744C157.715 42.8424 157.641 43.0796 157.446 43.1497C157.223 43.2294 133.974 51.545 133.74 51.6288C133.611 51.6751 133.464 51.6298 133.383 51.5185L129.772 46.5335L154.089 37.8361L157.593 42.6744ZM124.123 29.6444C125.02 29.3257 125.945 29.1199 126.887 29.029V44.4045C125.932 44.0629 105.674 36.8174 104.814 36.5097L124.123 29.6444Z" fill="#252836"/>
<path d="M129.113 23.2002V9.28643C129.113 8.67144 128.615 8.17313 128 8.17313C127.385 8.17313 126.887 8.67144 126.887 9.28643V23.2C126.887 23.815 127.385 24.3134 128 24.3134C128.615 24.3134 129.113 23.815 129.113 23.2002Z" fill="#FF8700"/>
<path d="M142.742 11.4148C142.424 11.5539 134.94 14.9263 133.703 24.2025C133.614 24.8685 134.132 25.463 134.808 25.463C135.358 25.463 135.836 25.0563 135.91 24.4967C136.357 21.1495 137.782 18.2803 140.146 15.9688C141.922 14.2316 143.598 13.4707 143.636 13.4539C144.198 13.2067 144.454 12.5514 144.208 11.9888C143.961 11.4255 143.305 11.1687 142.742 11.4148Z" fill="#FF8700"/>
<path d="M140.479 26.5806C140.174 27.1143 140.359 27.7944 140.892 28.0998C141.425 28.405 142.106 28.2207 142.411 27.6867C144.997 23.1693 148.838 21.4058 151.605 20.7221C152.202 20.5746 152.566 19.971 152.419 19.3741C152.271 18.7773 151.668 18.4127 151.071 18.5605C148.46 19.206 143.613 21.1057 140.479 26.5806Z" fill="#FF8700"/>
<path d="M111.792 11.9888C111.546 12.5521 111.803 13.2085 112.366 13.4549C112.433 13.4839 119.017 16.4505 120.09 24.4968C120.171 25.1083 120.733 25.5344 121.34 25.4532C121.95 25.3719 122.378 24.812 122.297 24.2025C121.06 14.9263 113.576 11.5537 113.258 11.4148C112.695 11.1687 112.039 11.4256 111.792 11.9888Z" fill="#FF8700"/>
<path d="M103.581 19.3741C103.434 19.971 103.798 20.5746 104.395 20.7221C107.162 21.406 111.003 23.1695 113.589 27.6867C113.894 28.2207 114.575 28.4051 115.108 28.0998C115.641 27.7943 115.826 27.1141 115.521 26.5806C112.387 21.1057 107.539 19.2058 104.929 18.5605C104.332 18.4128 103.729 18.7776 103.581 19.3741Z" fill="#FF8700"/>
<path d="M148.377 11.3215C147.762 11.3215 147.264 11.8198 147.264 12.4348C147.264 13.0498 147.762 13.5481 148.377 13.5481H149.152V14.3234C149.152 14.9383 149.651 15.4366 150.266 15.4366C150.881 15.4366 151.379 14.9383 151.379 14.3234V13.5481H152.154C152.769 13.5481 153.267 13.0498 153.267 12.4348C153.267 11.8198 152.769 11.3215 152.154 11.3215H151.379V10.5464C151.379 9.93139 150.881 9.43309 150.266 9.43309C149.651 9.43309 149.152 9.93139 149.152 10.5464V11.3215H148.377Z" fill="#FF8700"/>
<path d="M103.548 26.7491H102.773C102.158 26.7491 101.66 27.2474 101.66 27.8624C101.66 28.4773 102.158 28.9756 102.773 28.9756H103.548V29.7509C103.548 30.3659 104.047 30.8642 104.662 30.8642C105.277 30.8642 105.775 30.3659 105.775 29.7509V28.9756H106.55C107.165 28.9756 107.664 28.4773 107.664 27.8624C107.664 27.2474 107.165 26.7491 106.55 26.7491H105.775V25.9738C105.775 25.3588 105.277 24.8605 104.662 24.8605C104.047 24.8605 103.548 25.3588 103.548 25.9738V26.7491Z" fill="#FF8700"/>
<path d="M141.005 3.43135C139.987 2.91077 139.142 2.06362 138.625 1.04591C137.915 -0.348689 135.929 -0.34854 135.219 1.04621C134.702 2.06362 133.856 2.91091 132.839 3.4312C131.445 4.14401 131.454 6.14617 132.832 6.84874C133.845 7.36532 134.689 8.20712 135.208 9.21919C135.915 10.5958 137.929 10.5961 138.635 9.21904C139.155 8.20727 139.999 7.36546 141.012 6.84859C142.389 6.14617 142.399 4.1446 141.005 3.43135ZM136.922 7.72499C136.283 6.67522 135.388 5.78116 134.339 5.14183C135.389 4.50264 136.283 3.60948 136.922 2.56045C137.561 3.60948 138.455 4.50264 139.505 5.14183C138.455 5.78116 137.561 6.67507 136.922 7.72499Z" fill="#252836"/>
<path d="M118.324 11.4314C118.956 12.6635 120.755 12.6654 121.387 11.4314C121.749 10.726 122.338 10.1392 123.044 9.77911C124.268 9.15477 124.295 7.36546 123.039 6.72257C123.039 6.72242 123.039 6.72242 123.039 6.72227C122.33 6.35963 121.741 5.76929 121.38 5.05974C120.745 3.8121 118.967 3.8118 118.332 5.05989C117.971 5.76914 117.382 6.35963 116.672 6.72272C115.435 7.35641 115.425 9.14556 116.668 9.77911C117.374 10.1391 117.962 10.726 118.324 11.4314ZM119.856 6.82796C120.247 7.37704 120.731 7.86051 121.281 8.2521C120.731 8.64383 120.247 9.1276 119.856 9.67713C119.464 9.1279 118.98 8.64383 118.431 8.2521C118.98 7.86036 119.464 7.37704 119.856 6.82796Z" fill="#252836"/>
</g>
<path d="M37.8051 101.56H34.0931V99.8H43.5971V101.56H39.8851V111H37.8051V101.56ZM49.9341 102.36C51.0114 102.36 51.8754 102.675 52.5261 103.304C53.1767 103.933 53.5021 104.867 53.5021 106.104V111H51.5021V106.36C51.5021 105.613 51.3261 105.053 50.9741 104.68C50.6221 104.296 50.1207 104.104 49.4701 104.104C48.7341 104.104 48.1527 104.328 47.7261 104.776C47.2994 105.213 47.0861 105.848 47.0861 106.68V111H45.0861V99.128H47.0861V103.448C47.4167 103.096 47.8221 102.829 48.3021 102.648C48.7927 102.456 49.3367 102.36 49.9341 102.36ZM64.2693 106.776C64.2693 106.915 64.2586 107.112 64.2373 107.368H57.5333C57.6506 107.997 57.9546 108.499 58.4453 108.872C58.9466 109.235 59.5653 109.416 60.3013 109.416C61.24 109.416 62.0133 109.107 62.6213 108.488L63.6933 109.72C63.3093 110.179 62.824 110.525 62.2373 110.76C61.6506 110.995 60.9893 111.112 60.2533 111.112C59.3146 111.112 58.488 110.925 57.7733 110.552C57.0586 110.179 56.504 109.661 56.1093 109C55.7253 108.328 55.5333 107.571 55.5333 106.728C55.5333 105.896 55.72 105.149 56.0933 104.488C56.4773 103.816 57.0053 103.293 57.6773 102.92C58.3493 102.547 59.1066 102.36 59.9493 102.36C60.7813 102.36 61.5226 102.547 62.1733 102.92C62.8346 103.283 63.3466 103.8 63.7093 104.472C64.0826 105.133 64.2693 105.901 64.2693 106.776ZM59.9493 103.96C59.3093 103.96 58.7653 104.152 58.3173 104.536C57.88 104.909 57.6133 105.411 57.5173 106.04H62.3653C62.28 105.421 62.0186 104.92 61.5813 104.536C61.144 104.152 60.6 103.96 59.9493 103.96ZM68.2144 103.704C68.7904 102.808 69.8038 102.36 71.2544 102.36V104.264C71.0838 104.232 70.9291 104.216 70.7904 104.216C70.0118 104.216 69.4038 104.445 68.9664 104.904C68.5291 105.352 68.3104 106.003 68.3104 106.856V111H66.3104V102.456H68.2144V103.704ZM81.0249 106.776C81.0249 106.915 81.0143 107.112 80.9929 107.368H74.2889C74.4063 107.997 74.7103 108.499 75.2009 108.872C75.7023 109.235 76.3209 109.416 77.0569 109.416C77.9956 109.416 78.7689 109.107 79.3769 108.488L80.4489 109.72C80.0649 110.179 79.5796 110.525 78.9929 110.76C78.4063 110.995 77.7449 111.112 77.0089 111.112C76.0703 111.112 75.2436 110.925 74.5289 110.552C73.8143 110.179 73.2596 109.661 72.8649 109C72.4809 108.328 72.2889 107.571 72.2889 106.728C72.2889 105.896 72.4756 105.149 72.8489 104.488C73.2329 103.816 73.7609 103.293 74.4329 102.92C75.1049 102.547 75.8623 102.36 76.7049 102.36C77.5369 102.36 78.2783 102.547 78.9289 102.92C79.5903 103.283 80.1023 103.8 80.4649 104.472C80.8383 105.133 81.0249 105.901 81.0249 106.776ZM76.7049 103.96C76.0649 103.96 75.5209 104.152 75.0729 104.536C74.6356 104.909 74.3689 105.411 74.2729 106.04H79.1209C79.0356 105.421 78.7743 104.92 78.3369 104.536C77.8996 104.152 77.3556 103.96 76.7049 103.96ZM87.7999 99.8H89.8799V111H87.7999V99.8ZM95.4773 111.112C94.784 111.112 94.1066 111.021 93.4453 110.84C92.784 110.659 92.256 110.429 91.8613 110.152L92.6293 108.632C93.0133 108.888 93.472 109.096 94.0053 109.256C94.5493 109.405 95.0826 109.48 95.6053 109.48C96.8 109.48 97.3973 109.165 97.3973 108.536C97.3973 108.237 97.2426 108.029 96.9333 107.912C96.6346 107.795 96.1493 107.683 95.4773 107.576C94.7733 107.469 94.1973 107.347 93.7493 107.208C93.312 107.069 92.928 106.829 92.5973 106.488C92.2773 106.136 92.1173 105.651 92.1173 105.032C92.1173 104.221 92.4533 103.576 93.1253 103.096C93.808 102.605 94.7253 102.36 95.8773 102.36C96.464 102.36 97.0506 102.429 97.6373 102.568C98.224 102.696 98.704 102.872 99.0773 103.096L98.3093 104.616C97.584 104.189 96.768 103.976 95.8613 103.976C95.2746 103.976 94.8266 104.067 94.5173 104.248C94.2186 104.419 94.0693 104.648 94.0693 104.936C94.0693 105.256 94.2293 105.485 94.5493 105.624C94.88 105.752 95.3866 105.875 96.0693 105.992C96.752 106.099 97.312 106.221 97.7493 106.36C98.1866 106.499 98.56 106.733 98.8693 107.064C99.1893 107.395 99.3493 107.864 99.3493 108.472C99.3493 109.272 99.0026 109.912 98.3093 110.392C97.616 110.872 96.672 111.112 95.4773 111.112ZM115.878 99.8V111H114.166L107.99 103.416V111H105.926V99.8H107.638L113.814 107.384V99.8H115.878ZM122.647 111.112C121.783 111.112 121.004 110.925 120.311 110.552C119.617 110.179 119.073 109.661 118.679 109C118.295 108.328 118.103 107.571 118.103 106.728C118.103 105.885 118.295 105.133 118.679 104.472C119.073 103.811 119.617 103.293 120.311 102.92C121.004 102.547 121.783 102.36 122.647 102.36C123.521 102.36 124.305 102.547 124.999 102.92C125.692 103.293 126.231 103.811 126.615 104.472C127.009 105.133 127.207 105.885 127.207 106.728C127.207 107.571 127.009 108.328 126.615 109C126.231 109.661 125.692 110.179 124.999 110.552C124.305 110.925 123.521 111.112 122.647 111.112ZM122.647 109.4C123.383 109.4 123.991 109.155 124.471 108.664C124.951 108.173 125.191 107.528 125.191 106.728C125.191 105.928 124.951 105.283 124.471 104.792C123.991 104.301 123.383 104.056 122.647 104.056C121.911 104.056 121.303 104.301 120.823 104.792C120.353 105.283 120.119 105.928 120.119 106.728C120.119 107.528 120.353 108.173 120.823 108.664C121.303 109.155 121.911 109.4 122.647 109.4ZM144.261 111L144.245 103.576L140.565 109.72H139.637L135.957 103.672V111H133.973V99.8H135.685L140.133 107.224L144.501 99.8H146.213L146.229 111H144.261ZM153.022 111.112C152.158 111.112 151.38 110.925 150.686 110.552C149.993 110.179 149.449 109.661 149.054 109C148.67 108.328 148.478 107.571 148.478 106.728C148.478 105.885 148.67 105.133 149.054 104.472C149.449 103.811 149.993 103.293 150.686 102.92C151.38 102.547 152.158 102.36 153.022 102.36C153.897 102.36 154.681 102.547 155.374 102.92C156.068 103.293 156.606 103.811 156.99 104.472C157.385 105.133 157.582 105.885 157.582 106.728C157.582 107.571 157.385 108.328 156.99 109C156.606 109.661 156.068 110.179 155.374 110.552C154.681 110.925 153.897 111.112 153.022 111.112ZM153.022 109.4C153.758 109.4 154.366 109.155 154.846 108.664C155.326 108.173 155.566 107.528 155.566 106.728C155.566 105.928 155.326 105.283 154.846 104.792C154.366 104.301 153.758 104.056 153.022 104.056C152.286 104.056 151.678 104.301 151.198 104.792C150.729 105.283 150.494 105.928 150.494 106.728C150.494 107.528 150.729 108.173 151.198 108.664C151.678 109.155 152.286 109.4 153.022 109.4ZM167.38 102.456L163.716 111H161.652L157.988 102.456H160.068L162.724 108.792L165.46 102.456H167.38ZM168.75 102.456H170.75V111H168.75V102.456ZM169.758 101.048C169.396 101.048 169.092 100.936 168.846 100.712C168.601 100.477 168.478 100.189 168.478 99.848C168.478 99.5067 168.601 99.224 168.846 99C169.092 98.7653 169.396 98.648 169.758 98.648C170.121 98.648 170.425 98.76 170.67 98.984C170.916 99.1973 171.038 99.4693 171.038 99.8C171.038 100.152 170.916 100.451 170.67 100.696C170.436 100.931 170.132 101.048 169.758 101.048ZM181.527 106.776C181.527 106.915 181.517 107.112 181.495 107.368H174.791C174.909 107.997 175.213 108.499 175.703 108.872C176.205 109.235 176.823 109.416 177.559 109.416C178.498 109.416 179.271 109.107 179.879 108.488L180.951 109.72C180.567 110.179 180.082 110.525 179.495 110.76C178.909 110.995 178.247 111.112 177.511 111.112C176.573 111.112 175.746 110.925 175.031 110.552C174.317 110.179 173.762 109.661 173.367 109C172.983 108.328 172.791 107.571 172.791 106.728C172.791 105.896 172.978 105.149 173.351 104.488C173.735 103.816 174.263 103.293 174.935 102.92C175.607 102.547 176.365 102.36 177.207 102.36C178.039 102.36 178.781 102.547 179.431 102.92C180.093 103.283 180.605 103.8 180.967 104.472C181.341 105.133 181.527 105.901 181.527 106.776ZM177.207 103.96C176.567 103.96 176.023 104.152 175.575 104.536C175.138 104.909 174.871 105.411 174.775 106.04H179.623C179.538 105.421 179.277 104.92 178.839 104.536C178.402 104.152 177.858 103.96 177.207 103.96ZM193.134 107.048V111H191.054V107.08L186.654 99.8H188.878L192.158 105.256L195.47 99.8H197.518L193.134 107.048ZM205.887 106.776C205.887 106.915 205.877 107.112 205.855 107.368H199.151C199.269 107.997 199.573 108.499 200.063 108.872C200.565 109.235 201.183 109.416 201.919 109.416C202.858 109.416 203.631 109.107 204.239 108.488L205.311 109.72C204.927 110.179 204.442 110.525 203.855 110.76C203.269 110.995 202.607 111.112 201.871 111.112C200.933 111.112 200.106 110.925 199.391 110.552C198.677 110.179 198.122 109.661 197.727 109C197.343 108.328 197.151 107.571 197.151 106.728C197.151 105.896 197.338 105.149 197.711 104.488C198.095 103.816 198.623 103.293 199.295 102.92C199.967 102.547 200.725 102.36 201.567 102.36C202.399 102.36 203.141 102.547 203.791 102.92C204.453 103.283 204.965 103.8 205.327 104.472C205.701 105.133 205.887 105.901 205.887 106.776ZM201.567 103.96C200.927 103.96 200.383 104.152 199.935 104.536C199.498 104.909 199.231 105.411 199.135 106.04H203.983C203.898 105.421 203.637 104.92 203.199 104.536C202.762 104.152 202.218 103.96 201.567 103.96ZM213.065 110.536C212.83 110.728 212.542 110.872 212.201 110.968C211.87 111.064 211.518 111.112 211.145 111.112C210.206 111.112 209.481 110.867 208.969 110.376C208.457 109.885 208.201 109.171 208.201 108.232V104.12H206.793V102.52H208.201V100.568H210.201V102.52H212.489V104.12H210.201V108.184C210.201 108.6 210.302 108.92 210.505 109.144C210.707 109.357 211.001 109.464 211.385 109.464C211.833 109.464 212.206 109.347 212.505 109.112L213.065 110.536ZM214.574 99.8H216.942L216.542 107.288H214.958L214.574 99.8ZM215.758 111.112C215.384 111.112 215.075 110.995 214.83 110.76C214.584 110.515 214.462 110.216 214.462 109.864C214.462 109.512 214.584 109.219 214.83 108.984C215.075 108.749 215.384 108.632 215.758 108.632C216.12 108.632 216.419 108.749 216.654 108.984C216.899 109.219 217.022 109.512 217.022 109.864C217.022 110.216 216.899 110.515 216.654 110.76C216.419 110.995 216.12 111.112 215.758 111.112Z" fill="#EBEBEF"/>
<path d="M37.4686 132.644V135.572H41.6806V136.604H37.4686V140H36.2686V131.6H42.1966V132.644H37.4686ZM43.7206 133.64H44.8726V140H43.7206V133.64ZM44.2966 132.416C44.0726 132.416 43.8846 132.344 43.7326 132.2C43.5886 132.056 43.5166 131.88 43.5166 131.672C43.5166 131.464 43.5886 131.288 43.7326 131.144C43.8846 130.992 44.0726 130.916 44.2966 130.916C44.5206 130.916 44.7046 130.988 44.8486 131.132C45.0006 131.268 45.0766 131.44 45.0766 131.648C45.0766 131.864 45.0006 132.048 44.8486 132.2C44.7046 132.344 44.5206 132.416 44.2966 132.416ZM50.5882 133.58C51.3962 133.58 52.0362 133.816 52.5082 134.288C52.9882 134.752 53.2282 135.436 53.2282 136.34V140H52.0762V136.472C52.0762 135.856 51.9282 135.392 51.6322 135.08C51.3362 134.768 50.9122 134.612 50.3602 134.612C49.7362 134.612 49.2442 134.796 48.8842 135.164C48.5242 135.524 48.3442 136.044 48.3442 136.724V140H47.1922V133.64H48.2962V134.6C48.5282 134.272 48.8402 134.02 49.2322 133.844C49.6322 133.668 50.0842 133.58 50.5882 133.58ZM61.5153 131.096V140H60.4113V138.992C60.1553 139.344 59.8313 139.612 59.4393 139.796C59.0473 139.98 58.6153 140.072 58.1433 140.072C57.5273 140.072 56.9753 139.936 56.4873 139.664C55.9993 139.392 55.6153 139.012 55.3353 138.524C55.0633 138.028 54.9273 137.46 54.9273 136.82C54.9273 136.18 55.0633 135.616 55.3353 135.128C55.6153 134.64 55.9993 134.26 56.4873 133.988C56.9753 133.716 57.5273 133.58 58.1433 133.58C58.5993 133.58 59.0193 133.668 59.4033 133.844C59.7873 134.012 60.1073 134.264 60.3633 134.6V131.096H61.5153ZM58.2393 139.064C58.6393 139.064 59.0033 138.972 59.3313 138.788C59.6593 138.596 59.9153 138.332 60.0993 137.996C60.2833 137.652 60.3753 137.26 60.3753 136.82C60.3753 136.38 60.2833 135.992 60.0993 135.656C59.9153 135.312 59.6593 135.048 59.3313 134.864C59.0033 134.68 58.6393 134.588 58.2393 134.588C57.8313 134.588 57.4633 134.68 57.1353 134.864C56.8153 135.048 56.5593 135.312 56.3673 135.656C56.1833 135.992 56.0913 136.38 56.0913 136.82C56.0913 137.26 56.1833 137.652 56.3673 137.996C56.5593 138.332 56.8153 138.596 57.1353 138.788C57.4633 138.972 57.8313 139.064 58.2393 139.064ZM72.7856 133.64L69.7016 140.636C69.4296 141.284 69.1096 141.74 68.7416 142.004C68.3816 142.268 67.9456 142.4 67.4336 142.4C67.1216 142.4 66.8176 142.348 66.5216 142.244C66.2336 142.148 65.9936 142.004 65.8016 141.812L66.2936 140.948C66.6216 141.26 67.0016 141.416 67.4336 141.416C67.7136 141.416 67.9456 141.34 68.1296 141.188C68.3216 141.044 68.4936 140.792 68.6456 140.432L68.8496 139.988L66.0416 133.64H67.2416L69.4616 138.728L71.6576 133.64H72.7856ZM76.529 140.072C75.897 140.072 75.329 139.932 74.825 139.652C74.321 139.372 73.925 138.988 73.637 138.5C73.357 138.004 73.217 137.444 73.217 136.82C73.217 136.196 73.357 135.64 73.637 135.152C73.925 134.656 74.321 134.272 74.825 134C75.329 133.72 75.897 133.58 76.529 133.58C77.161 133.58 77.725 133.72 78.221 134C78.725 134.272 79.117 134.656 79.397 135.152C79.685 135.64 79.829 136.196 79.829 136.82C79.829 137.444 79.685 138.004 79.397 138.5C79.117 138.988 78.725 139.372 78.221 139.652C77.725 139.932 77.161 140.072 76.529 140.072ZM76.529 139.064C76.937 139.064 77.301 138.972 77.621 138.788C77.949 138.596 78.205 138.332 78.389 137.996C78.573 137.652 78.665 137.26 78.665 136.82C78.665 136.38 78.573 135.992 78.389 135.656C78.205 135.312 77.949 135.048 77.621 134.864C77.301 134.68 76.937 134.588 76.529 134.588C76.121 134.588 75.753 134.68 75.425 134.864C75.105 135.048 74.849 135.312 74.657 135.656C74.473 135.992 74.381 136.38 74.381 136.82C74.381 137.26 74.473 137.652 74.657 137.996C74.849 138.332 75.105 138.596 75.425 138.788C75.753 138.972 76.121 139.064 76.529 139.064ZM87.4701 133.64V140H86.3781V139.04C86.1461 139.368 85.8381 139.624 85.4541 139.808C85.0781 139.984 84.6661 140.072 84.2181 140.072C83.3701 140.072 82.7021 139.84 82.2141 139.376C81.7261 138.904 81.4821 138.212 81.4821 137.3V133.64H82.6341V137.168C82.6341 137.784 82.7821 138.252 83.0781 138.572C83.3741 138.884 83.7981 139.04 84.3501 139.04C84.9581 139.04 85.4381 138.856 85.7901 138.488C86.1421 138.12 86.3181 137.6 86.3181 136.928V133.64H87.4701ZM90.8872 134.708C91.0872 134.34 91.3832 134.06 91.7752 133.868C92.1672 133.676 92.6432 133.58 93.2032 133.58V134.696C93.1392 134.688 93.0512 134.684 92.9392 134.684C92.3152 134.684 91.8232 134.872 91.4632 135.248C91.1112 135.616 90.9352 136.144 90.9352 136.832V140H89.7832V133.64H90.8872V134.708ZM106.124 133.58C106.924 133.58 107.556 133.812 108.02 134.276C108.492 134.74 108.728 135.428 108.728 136.34V140H107.576V136.472C107.576 135.856 107.432 135.392 107.144 135.08C106.864 134.768 106.46 134.612 105.932 134.612C105.348 134.612 104.884 134.796 104.54 135.164C104.196 135.524 104.024 136.044 104.024 136.724V140H102.872V136.472C102.872 135.856 102.728 135.392 102.44 135.08C102.16 134.768 101.756 134.612 101.228 134.612C100.644 134.612 100.18 134.796 99.8358 135.164C99.4918 135.524 99.3198 136.044 99.3198 136.724V140H98.1678V133.64H99.2718V134.588C99.5038 134.26 99.8078 134.012 100.184 133.844C100.56 133.668 100.988 133.58 101.468 133.58C101.964 133.58 102.404 133.68 102.788 133.88C103.172 134.08 103.468 134.372 103.676 134.756C103.916 134.388 104.248 134.1 104.672 133.892C105.104 133.684 105.588 133.58 106.124 133.58ZM113.727 140.072C113.095 140.072 112.527 139.932 112.023 139.652C111.519 139.372 111.123 138.988 110.835 138.5C110.555 138.004 110.415 137.444 110.415 136.82C110.415 136.196 110.555 135.64 110.835 135.152C111.123 134.656 111.519 134.272 112.023 134C112.527 133.72 113.095 133.58 113.727 133.58C114.359 133.58 114.923 133.72 115.419 134C115.923 134.272 116.315 134.656 116.595 135.152C116.883 135.64 117.027 136.196 117.027 136.82C117.027 137.444 116.883 138.004 116.595 138.5C116.315 138.988 115.923 139.372 115.419 139.652C114.923 139.932 114.359 140.072 113.727 140.072ZM113.727 139.064C114.135 139.064 114.499 138.972 114.819 138.788C115.147 138.596 115.403 138.332 115.587 137.996C115.771 137.652 115.863 137.26 115.863 136.82C115.863 136.38 115.771 135.992 115.587 135.656C115.403 135.312 115.147 135.048 114.819 134.864C114.499 134.68 114.135 134.588 113.727 134.588C113.319 134.588 112.951 134.68 112.623 134.864C112.303 135.048 112.047 135.312 111.855 135.656C111.671 135.992 111.579 136.38 111.579 136.82C111.579 137.26 111.671 137.652 111.855 137.996C112.047 138.332 112.303 138.596 112.623 138.788C112.951 138.972 113.319 139.064 113.727 139.064ZM124.192 133.64L121.408 140H120.232L117.448 133.64H118.648L120.832 138.74L123.064 133.64H124.192ZM125.387 133.64H126.539V140H125.387V133.64ZM125.963 132.416C125.739 132.416 125.551 132.344 125.399 132.2C125.255 132.056 125.183 131.88 125.183 131.672C125.183 131.464 125.255 131.288 125.399 131.144C125.551 130.992 125.739 130.916 125.963 130.916C126.187 130.916 126.371 130.988 126.515 131.132C126.667 131.268 126.743 131.44 126.743 131.648C126.743 131.864 126.667 132.048 126.515 132.2C126.371 132.344 126.187 132.416 125.963 132.416ZM134.607 136.856C134.607 136.944 134.599 137.06 134.583 137.204H129.423C129.495 137.764 129.739 138.216 130.155 138.56C130.579 138.896 131.103 139.064 131.727 139.064C132.487 139.064 133.099 138.808 133.563 138.296L134.199 139.04C133.911 139.376 133.551 139.632 133.119 139.808C132.695 139.984 132.219 140.072 131.691 140.072C131.019 140.072 130.423 139.936 129.903 139.664C129.383 139.384 128.979 138.996 128.691 138.5C128.411 138.004 128.271 137.444 128.271 136.82C128.271 136.204 128.407 135.648 128.679 135.152C128.959 134.656 129.339 134.272 129.819 134C130.307 133.72 130.855 133.58 131.463 133.58C132.071 133.58 132.611 133.72 133.083 134C133.563 134.272 133.935 134.656 134.199 135.152C134.471 135.648 134.607 136.216 134.607 136.856ZM131.463 134.552C130.911 134.552 130.447 134.72 130.071 135.056C129.703 135.392 129.487 135.832 129.423 136.376H133.503C133.439 135.84 133.219 135.404 132.843 135.068C132.475 134.724 132.015 134.552 131.463 134.552ZM143.041 133.58C143.657 133.58 144.209 133.716 144.697 133.988C145.185 134.26 145.565 134.64 145.837 135.128C146.117 135.616 146.257 136.18 146.257 136.82C146.257 137.46 146.117 138.028 145.837 138.524C145.565 139.012 145.185 139.392 144.697 139.664C144.209 139.936 143.657 140.072 143.041 140.072C142.569 140.072 142.137 139.98 141.745 139.796C141.353 139.612 141.029 139.344 140.773 138.992V140H139.669V131.096H140.821V134.6C141.077 134.264 141.397 134.012 141.781 133.844C142.165 133.668 142.585 133.58 143.041 133.58ZM142.945 139.064C143.353 139.064 143.717 138.972 144.037 138.788C144.365 138.596 144.621 138.332 144.805 137.996C144.997 137.652 145.093 137.26 145.093 136.82C145.093 136.38 144.997 135.992 144.805 135.656C144.621 135.312 144.365 135.048 144.037 134.864C143.717 134.68 143.353 134.588 142.945 134.588C142.545 134.588 142.181 134.68 141.853 134.864C141.525 135.048 141.269 135.312 141.085 135.656C140.901 135.992 140.809 136.38 140.809 136.82C140.809 137.26 140.901 137.652 141.085 137.996C141.269 138.332 141.525 138.596 141.853 138.788C142.181 138.972 142.545 139.064 142.945 139.064ZM153.421 133.64L150.337 140.636C150.065 141.284 149.745 141.74 149.377 142.004C149.017 142.268 148.581 142.4 148.069 142.4C147.757 142.4 147.453 142.348 147.157 142.244C146.869 142.148 146.629 142.004 146.437 141.812L146.929 140.948C147.257 141.26 147.637 141.416 148.069 141.416C148.349 141.416 148.581 141.34 148.765 141.188C148.957 141.044 149.129 140.792 149.281 140.432L149.485 139.988L146.677 133.64H147.877L150.097 138.728L152.293 133.64H153.421ZM159.795 132.644H156.915V131.6H163.863V132.644H160.983V140H159.795V132.644ZM170.351 133.64L167.267 140.636C166.995 141.284 166.675 141.74 166.307 142.004C165.947 142.268 165.511 142.4 164.999 142.4C164.687 142.4 164.383 142.348 164.087 142.244C163.799 142.148 163.559 142.004 163.367 141.812L163.859 140.948C164.187 141.26 164.567 141.416 164.999 141.416C165.279 141.416 165.511 141.34 165.695 141.188C165.887 141.044 166.059 140.792 166.211 140.432L166.415 139.988L163.607 133.64H164.807L167.027 138.728L169.223 133.64H170.351ZM174.918 133.58C175.534 133.58 176.086 133.716 176.574 133.988C177.062 134.26 177.442 134.64 177.714 135.128C177.994 135.616 178.134 136.18 178.134 136.82C178.134 137.46 177.994 138.028 177.714 138.524C177.442 139.012 177.062 139.392 176.574 139.664C176.086 139.936 175.534 140.072 174.918 140.072C174.462 140.072 174.042 139.984 173.658 139.808C173.282 139.632 172.962 139.376 172.698 139.04V142.328H171.546V133.64H172.65V134.648C172.906 134.296 173.23 134.032 173.622 133.856C174.014 133.672 174.446 133.58 174.918 133.58ZM174.822 139.064C175.23 139.064 175.594 138.972 175.914 138.788C176.242 138.596 176.498 138.332 176.682 137.996C176.874 137.652 176.97 137.26 176.97 136.82C176.97 136.38 176.874 135.992 176.682 135.656C176.498 135.312 176.242 135.048 175.914 134.864C175.594 134.68 175.23 134.588 174.822 134.588C174.422 134.588 174.058 134.684 173.73 134.876C173.41 135.06 173.154 135.32 172.962 135.656C172.778 135.992 172.686 136.38 172.686 136.82C172.686 137.26 172.778 137.652 172.962 137.996C173.146 138.332 173.402 138.596 173.73 138.788C174.058 138.972 174.422 139.064 174.822 139.064ZM185.594 136.856C185.594 136.944 185.586 137.06 185.57 137.204H180.41C180.482 137.764 180.726 138.216 181.142 138.56C181.566 138.896 182.09 139.064 182.714 139.064C183.474 139.064 184.086 138.808 184.55 138.296L185.186 139.04C184.898 139.376 184.538 139.632 184.106 139.808C183.682 139.984 183.206 140.072 182.678 140.072C182.006 140.072 181.41 139.936 180.89 139.664C180.37 139.384 179.966 138.996 179.678 138.5C179.398 138.004 179.258 137.444 179.258 136.82C179.258 136.204 179.394 135.648 179.666 135.152C179.946 134.656 180.326 134.272 180.806 134C181.294 133.72 181.842 133.58 182.45 133.58C183.058 133.58 183.598 133.72 184.07 134C184.55 134.272 184.922 134.656 185.186 135.152C185.458 135.648 185.594 136.216 185.594 136.856ZM182.45 134.552C181.898 134.552 181.434 134.72 181.058 135.056C180.69 135.392 180.474 135.832 180.41 136.376H184.49C184.426 135.84 184.206 135.404 183.83 135.068C183.462 134.724 183.002 134.552 182.45 134.552ZM194.232 139.628C194.064 139.772 193.856 139.884 193.608 139.964C193.36 140.036 193.104 140.072 192.84 140.072C192.2 140.072 191.704 139.9 191.352 139.556C191 139.212 190.824 138.72 190.824 138.08V134.588H189.744V133.64H190.824V132.248H191.976V133.64H193.8V134.588H191.976V138.032C191.976 138.376 192.06 138.64 192.228 138.824C192.404 139.008 192.652 139.1 192.972 139.1C193.324 139.1 193.624 139 193.872 138.8L194.232 139.628ZM195.745 133.64H196.897V140H195.745V133.64ZM196.321 132.416C196.097 132.416 195.909 132.344 195.757 132.2C195.613 132.056 195.541 131.88 195.541 131.672C195.541 131.464 195.613 131.288 195.757 131.144C195.909 130.992 196.097 130.916 196.321 130.916C196.545 130.916 196.729 130.988 196.873 131.132C197.025 131.268 197.101 131.44 197.101 131.648C197.101 131.864 197.025 132.048 196.873 132.2C196.729 132.344 196.545 132.416 196.321 132.416ZM202.793 139.628C202.625 139.772 202.417 139.884 202.169 139.964C201.921 140.036 201.665 140.072 201.401 140.072C200.761 140.072 200.265 139.9 199.913 139.556C199.561 139.212 199.385 138.72 199.385 138.08V134.588H198.305V133.64H199.385V132.248H200.537V133.64H202.361V134.588H200.537V138.032C200.537 138.376 200.621 138.64 200.789 138.824C200.965 139.008 201.213 139.1 201.533 139.1C201.885 139.1 202.185 139 202.433 138.8L202.793 139.628ZM204.305 131.096H205.457V140H204.305V131.096ZM213.525 136.856C213.525 136.944 213.517 137.06 213.501 137.204H208.341C208.413 137.764 208.657 138.216 209.073 138.56C209.497 138.896 210.021 139.064 210.645 139.064C211.405 139.064 212.017 138.808 212.481 138.296L213.117 139.04C212.829 139.376 212.469 139.632 212.037 139.808C211.613 139.984 211.137 140.072 210.609 140.072C209.937 140.072 209.341 139.936 208.821 139.664C208.301 139.384 207.897 138.996 207.609 138.5C207.329 138.004 207.189 137.444 207.189 136.82C207.189 136.204 207.325 135.648 207.597 135.152C207.877 134.656 208.257 134.272 208.737 134C209.225 133.72 209.773 133.58 210.381 133.58C210.989 133.58 211.529 133.72 212.001 134C212.481 134.272 212.853 134.656 213.117 135.152C213.389 135.648 213.525 136.216 213.525 136.856ZM210.381 134.552C209.829 134.552 209.365 134.72 208.989 135.056C208.621 135.392 208.405 135.832 208.341 136.376H212.421C212.357 135.84 212.137 135.404 211.761 135.068C211.393 134.724 210.933 134.552 210.381 134.552ZM215.533 138.428C215.757 138.428 215.941 138.508 216.085 138.668C216.237 138.82 216.313 139.012 216.313 139.244C216.313 139.364 216.297 139.48 216.265 139.592C216.241 139.704 216.189 139.876 216.109 140.108L215.545 141.776H214.789L215.233 139.988C215.081 139.932 214.957 139.84 214.861 139.712C214.773 139.576 214.729 139.42 214.729 139.244C214.729 139.004 214.805 138.808 214.957 138.656C215.109 138.504 215.301 138.428 215.533 138.428ZM65.4444 159.072C64.7964 159.072 64.2164 158.932 63.7044 158.652C63.2004 158.372 62.8044 157.988 62.5164 157.5C62.2284 157.004 62.0844 156.444 62.0844 155.82C62.0844 155.196 62.2284 154.64 62.5164 154.152C62.8044 153.656 63.2004 153.272 63.7044 153C64.2164 152.72 64.7964 152.58 65.4444 152.58C66.0204 152.58 66.5324 152.696 66.9804 152.928C67.4364 153.16 67.7884 153.496 68.0364 153.936L67.1604 154.5C66.9604 154.196 66.7124 153.968 66.4164 153.816C66.1204 153.664 65.7924 153.588 65.4324 153.588C65.0164 153.588 64.6404 153.68 64.3044 153.864C63.9764 154.048 63.7164 154.312 63.5244 154.656C63.3404 154.992 63.2484 155.38 63.2484 155.82C63.2484 156.268 63.3404 156.664 63.5244 157.008C63.7164 157.344 63.9764 157.604 64.3044 157.788C64.6404 157.972 65.0164 158.064 65.4324 158.064C65.7924 158.064 66.1204 157.988 66.4164 157.836C66.7124 157.684 66.9604 157.456 67.1604 157.152L68.0364 157.704C67.7884 158.144 67.4364 158.484 66.9804 158.724C66.5324 158.956 66.0204 159.072 65.4444 159.072ZM71.9639 152.58C72.8439 152.58 73.5159 152.796 73.9799 153.228C74.4519 153.66 74.6879 154.304 74.6879 155.16V159H73.5959V158.16C73.4039 158.456 73.1279 158.684 72.7679 158.844C72.4159 158.996 71.9959 159.072 71.5079 159.072C70.7959 159.072 70.2239 158.9 69.7919 158.556C69.3679 158.212 69.1559 157.76 69.1559 157.2C69.1559 156.64 69.3599 156.192 69.7679 155.856C70.1759 155.512 70.8239 155.34 71.7119 155.34H73.5359V155.112C73.5359 154.616 73.3919 154.236 73.1039 153.972C72.8159 153.708 72.3919 153.576 71.8319 153.576C71.4559 153.576 71.0879 153.64 70.7279 153.768C70.3679 153.888 70.0639 154.052 69.8159 154.26L69.3359 153.396C69.6639 153.132 70.0559 152.932 70.5119 152.796C70.9679 152.652 71.4519 152.58 71.9639 152.58ZM71.6999 158.184C72.1399 158.184 72.5199 158.088 72.8399 157.896C73.1599 157.696 73.3919 157.416 73.5359 157.056V156.168H71.7599C70.7839 156.168 70.2959 156.496 70.2959 157.152C70.2959 157.472 70.4199 157.724 70.6679 157.908C70.9159 158.092 71.2599 158.184 71.6999 158.184ZM80.5157 158.628C80.3477 158.772 80.1397 158.884 79.8917 158.964C79.6437 159.036 79.3877 159.072 79.1237 159.072C78.4837 159.072 77.9877 158.9 77.6357 158.556C77.2837 158.212 77.1077 157.72 77.1077 157.08V153.588H76.0277V152.64H77.1077V151.248H78.2597V152.64H80.0837V153.588H78.2597V157.032C78.2597 157.376 78.3437 157.64 78.5117 157.824C78.6877 158.008 78.9357 158.1 79.2557 158.1C79.6077 158.1 79.9077 158 80.1557 157.8L80.5157 158.628ZM87.5655 155.856C87.5655 155.944 87.5575 156.06 87.5415 156.204H82.3815C82.4535 156.764 82.6975 157.216 83.1135 157.56C83.5375 157.896 84.0615 158.064 84.6855 158.064C85.4455 158.064 86.0575 157.808 86.5215 157.296L87.1575 158.04C86.8695 158.376 86.5095 158.632 86.0775 158.808C85.6535 158.984 85.1775 159.072 84.6495 159.072C83.9775 159.072 83.3815 158.936 82.8615 158.664C82.3415 158.384 81.9375 157.996 81.6495 157.5C81.3695 157.004 81.2295 156.444 81.2295 155.82C81.2295 155.204 81.3655 154.648 81.6375 154.152C81.9175 153.656 82.2975 153.272 82.7775 153C83.2655 152.72 83.8135 152.58 84.4215 152.58C85.0295 152.58 85.5695 152.72 86.0415 153C86.5215 153.272 86.8935 153.656 87.1575 154.152C87.4295 154.648 87.5655 155.216 87.5655 155.856ZM84.4215 153.552C83.8695 153.552 83.4055 153.72 83.0295 154.056C82.6615 154.392 82.4455 154.832 82.3815 155.376H86.4615C86.3975 154.84 86.1775 154.404 85.8015 154.068C85.4335 153.724 84.9735 153.552 84.4215 153.552ZM95.3692 152.64V158.136C95.3692 159.248 95.0932 160.068 94.5412 160.596C93.9892 161.132 93.1652 161.4 92.0692 161.4C91.4692 161.4 90.8972 161.316 90.3532 161.148C89.8092 160.988 89.3692 160.756 89.0332 160.452L89.5852 159.564C89.8812 159.82 90.2452 160.02 90.6772 160.164C91.1172 160.316 91.5692 160.392 92.0332 160.392C92.7772 160.392 93.3252 160.216 93.6772 159.864C94.0372 159.512 94.2172 158.976 94.2172 158.256V157.752C93.9452 158.08 93.6092 158.328 93.2092 158.496C92.8172 158.656 92.3892 158.736 91.9252 158.736C91.3172 158.736 90.7652 158.608 90.2692 158.352C89.7812 158.088 89.3972 157.724 89.1172 157.26C88.8372 156.788 88.6972 156.252 88.6972 155.652C88.6972 155.052 88.8372 154.52 89.1172 154.056C89.3972 153.584 89.7812 153.22 90.2692 152.964C90.7652 152.708 91.3172 152.58 91.9252 152.58C92.4052 152.58 92.8492 152.668 93.2572 152.844C93.6732 153.02 94.0132 153.28 94.2772 153.624V152.64H95.3692ZM92.0572 157.728C92.4732 157.728 92.8452 157.64 93.1732 157.464C93.5092 157.288 93.7692 157.044 93.9532 156.732C94.1452 156.412 94.2412 156.052 94.2412 155.652C94.2412 155.036 94.0372 154.54 93.6292 154.164C93.2212 153.78 92.6972 153.588 92.0572 153.588C91.4092 153.588 90.8812 153.78 90.4732 154.164C90.0652 154.54 89.8612 155.036 89.8612 155.652C89.8612 156.052 89.9532 156.412 90.1372 156.732C90.3292 157.044 90.5892 157.288 90.9172 157.464C91.2532 157.64 91.6332 157.728 92.0572 157.728ZM100.414 159.072C99.7824 159.072 99.2144 158.932 98.7104 158.652C98.2064 158.372 97.8104 157.988 97.5224 157.5C97.2424 157.004 97.1024 156.444 97.1024 155.82C97.1024 155.196 97.2424 154.64 97.5224 154.152C97.8104 153.656 98.2064 153.272 98.7104 153C99.2144 152.72 99.7824 152.58 100.414 152.58C101.046 152.58 101.61 152.72 102.106 153C102.61 153.272 103.002 153.656 103.282 154.152C103.57 154.64 103.714 155.196 103.714 155.82C103.714 156.444 103.57 157.004 103.282 157.5C103.002 157.988 102.61 158.372 102.106 158.652C101.61 158.932 101.046 159.072 100.414 159.072ZM100.414 158.064C100.822 158.064 101.186 157.972 101.506 157.788C101.834 157.596 102.09 157.332 102.274 156.996C102.458 156.652 102.55 156.26 102.55 155.82C102.55 155.38 102.458 154.992 102.274 154.656C102.09 154.312 101.834 154.048 101.506 153.864C101.186 153.68 100.822 153.588 100.414 153.588C100.006 153.588 99.6384 153.68 99.3104 153.864C98.9904 154.048 98.7344 154.312 98.5424 154.656C98.3584 154.992 98.2664 155.38 98.2664 155.82C98.2664 156.26 98.3584 156.652 98.5424 156.996C98.7344 157.332 98.9904 157.596 99.3104 157.788C99.6384 157.972 100.006 158.064 100.414 158.064ZM106.532 153.708C106.732 153.34 107.028 153.06 107.42 152.868C107.812 152.676 108.288 152.58 108.848 152.58V153.696C108.784 153.688 108.696 153.684 108.584 153.684C107.96 153.684 107.468 153.872 107.108 154.248C106.756 154.616 106.58 155.144 106.58 155.832V159H105.428V152.64H106.532V153.708ZM110.387 152.64H111.539V159H110.387V152.64ZM110.963 151.416C110.739 151.416 110.551 151.344 110.399 151.2C110.255 151.056 110.183 150.88 110.183 150.672C110.183 150.464 110.255 150.288 110.399 150.144C110.551 149.992 110.739 149.916 110.963 149.916C111.187 149.916 111.371 149.988 111.515 150.132C111.667 150.268 111.743 150.44 111.743 150.648C111.743 150.864 111.667 151.048 111.515 151.2C111.371 151.344 111.187 151.416 110.963 151.416ZM119.607 155.856C119.607 155.944 119.599 156.06 119.583 156.204H114.423C114.495 156.764 114.739 157.216 115.155 157.56C115.579 157.896 116.103 158.064 116.727 158.064C117.487 158.064 118.099 157.808 118.563 157.296L119.199 158.04C118.911 158.376 118.551 158.632 118.119 158.808C117.695 158.984 117.219 159.072 116.691 159.072C116.019 159.072 115.423 158.936 114.903 158.664C114.383 158.384 113.979 157.996 113.691 157.5C113.411 157.004 113.271 156.444 113.271 155.82C113.271 155.204 113.407 154.648 113.679 154.152C113.959 153.656 114.339 153.272 114.819 153C115.307 152.72 115.855 152.58 116.463 152.58C117.071 152.58 117.611 152.72 118.083 153C118.563 153.272 118.935 153.656 119.199 154.152C119.471 154.648 119.607 155.216 119.607 155.856ZM116.463 153.552C115.911 153.552 115.447 153.72 115.071 154.056C114.703 154.392 114.487 154.832 114.423 155.376H118.503C118.439 154.84 118.219 154.404 117.843 154.068C117.475 153.724 117.015 153.552 116.463 153.552ZM123.151 159.072C122.631 159.072 122.131 159.004 121.651 158.868C121.171 158.724 120.795 158.544 120.523 158.328L121.003 157.416C121.283 157.616 121.623 157.776 122.023 157.896C122.423 158.016 122.827 158.076 123.235 158.076C124.243 158.076 124.747 157.788 124.747 157.212C124.747 157.02 124.679 156.868 124.543 156.756C124.407 156.644 124.235 156.564 124.027 156.516C123.827 156.46 123.539 156.4 123.163 156.336C122.651 156.256 122.231 156.164 121.903 156.06C121.583 155.956 121.307 155.78 121.075 155.532C120.843 155.284 120.727 154.936 120.727 154.488C120.727 153.912 120.967 153.452 121.447 153.108C121.927 152.756 122.571 152.58 123.379 152.58C123.803 152.58 124.227 152.632 124.651 152.736C125.075 152.84 125.423 152.98 125.695 153.156L125.203 154.068C124.683 153.732 124.071 153.564 123.367 153.564C122.879 153.564 122.507 153.644 122.251 153.804C121.995 153.964 121.867 154.176 121.867 154.44C121.867 154.648 121.939 154.812 122.083 154.932C122.227 155.052 122.403 155.14 122.611 155.196C122.827 155.252 123.127 155.316 123.511 155.388C124.023 155.476 124.435 155.572 124.747 155.676C125.067 155.772 125.339 155.94 125.563 156.18C125.787 156.42 125.899 156.756 125.899 157.188C125.899 157.764 125.651 158.224 125.155 158.568C124.667 158.904 123.999 159.072 123.151 159.072ZM127.746 157.428C127.97 157.428 128.154 157.508 128.298 157.668C128.45 157.82 128.526 158.012 128.526 158.244C128.526 158.364 128.51 158.48 128.478 158.592C128.454 158.704 128.402 158.876 128.322 159.108L127.758 160.776H127.002L127.446 158.988C127.294 158.932 127.17 158.84 127.074 158.712C126.986 158.576 126.942 158.42 126.942 158.244C126.942 158.004 127.018 157.808 127.17 157.656C127.322 157.504 127.514 157.428 127.746 157.428ZM139.268 152.64L136.184 159.636C135.912 160.284 135.592 160.74 135.224 161.004C134.864 161.268 134.428 161.4 133.916 161.4C133.604 161.4 133.3 161.348 133.004 161.244C132.716 161.148 132.476 161.004 132.284 160.812L132.776 159.948C133.104 160.26 133.484 160.416 133.916 160.416C134.196 160.416 134.428 160.34 134.612 160.188C134.804 160.044 134.976 159.792 135.128 159.432L135.332 158.988L132.524 152.64H133.724L135.944 157.728L138.14 152.64H139.268ZM146.035 155.856C146.035 155.944 146.027 156.06 146.011 156.204H140.851C140.923 156.764 141.167 157.216 141.583 157.56C142.007 157.896 142.531 158.064 143.155 158.064C143.915 158.064 144.527 157.808 144.991 157.296L145.627 158.04C145.339 158.376 144.979 158.632 144.547 158.808C144.123 158.984 143.647 159.072 143.119 159.072C142.447 159.072 141.851 158.936 141.331 158.664C140.811 158.384 140.407 157.996 140.119 157.5C139.839 157.004 139.699 156.444 139.699 155.82C139.699 155.204 139.835 154.648 140.107 154.152C140.387 153.656 140.767 153.272 141.247 153C141.735 152.72 142.283 152.58 142.891 152.58C143.499 152.58 144.039 152.72 144.511 153C144.991 153.272 145.363 153.656 145.627 154.152C145.899 154.648 146.035 155.216 146.035 155.856ZM142.891 153.552C142.339 153.552 141.875 153.72 141.499 154.056C141.131 154.392 140.915 154.832 140.851 155.376H144.931C144.867 154.84 144.647 154.404 144.271 154.068C143.903 153.724 143.443 153.552 142.891 153.552ZM149.895 152.58C150.775 152.58 151.447 152.796 151.911 153.228C152.383 153.66 152.619 154.304 152.619 155.16V159H151.527V158.16C151.335 158.456 151.059 158.684 150.699 158.844C150.347 158.996 149.927 159.072 149.439 159.072C148.727 159.072 148.155 158.9 147.723 158.556C147.299 158.212 147.087 157.76 147.087 157.2C147.087 156.64 147.291 156.192 147.699 155.856C148.107 155.512 148.755 155.34 149.643 155.34H151.467V155.112C151.467 154.616 151.323 154.236 151.035 153.972C150.747 153.708 150.323 153.576 149.763 153.576C149.387 153.576 149.019 153.64 148.659 153.768C148.299 153.888 147.995 154.052 147.747 154.26L147.267 153.396C147.595 153.132 147.987 152.932 148.443 152.796C148.899 152.652 149.383 152.58 149.895 152.58ZM149.631 158.184C150.071 158.184 150.451 158.088 150.771 157.896C151.091 157.696 151.323 157.416 151.467 157.056V156.168H149.691C148.715 156.168 148.227 156.496 148.227 157.152C148.227 157.472 148.351 157.724 148.599 157.908C148.847 158.092 149.191 158.184 149.631 158.184ZM155.975 153.708C156.175 153.34 156.471 153.06 156.863 152.868C157.255 152.676 157.731 152.58 158.291 152.58V153.696C158.227 153.688 158.139 153.684 158.027 153.684C157.403 153.684 156.911 153.872 156.551 154.248C156.199 154.616 156.023 155.144 156.023 155.832V159H154.871V152.64H155.975V153.708ZM161.702 159.072C161.182 159.072 160.682 159.004 160.202 158.868C159.722 158.724 159.346 158.544 159.074 158.328L159.554 157.416C159.834 157.616 160.174 157.776 160.574 157.896C160.974 158.016 161.378 158.076 161.786 158.076C162.794 158.076 163.298 157.788 163.298 157.212C163.298 157.02 163.23 156.868 163.094 156.756C162.958 156.644 162.786 156.564 162.578 156.516C162.378 156.46 162.09 156.4 161.714 156.336C161.202 156.256 160.782 156.164 160.454 156.06C160.134 155.956 159.858 155.78 159.626 155.532C159.394 155.284 159.278 154.936 159.278 154.488C159.278 153.912 159.518 153.452 159.998 153.108C160.478 152.756 161.122 152.58 161.93 152.58C162.354 152.58 162.778 152.632 163.202 152.736C163.626 152.84 163.974 152.98 164.246 153.156L163.754 154.068C163.234 153.732 162.622 153.564 161.918 153.564C161.43 153.564 161.058 153.644 160.802 153.804C160.546 153.964 160.418 154.176 160.418 154.44C160.418 154.648 160.49 154.812 160.634 154.932C160.778 155.052 160.954 155.14 161.162 155.196C161.378 155.252 161.678 155.316 162.062 155.388C162.574 155.476 162.986 155.572 163.298 155.676C163.618 155.772 163.89 155.94 164.114 156.18C164.338 156.42 164.45 156.756 164.45 157.188C164.45 157.764 164.202 158.224 163.706 158.568C163.218 158.904 162.55 159.072 161.702 159.072ZM166.297 157.428C166.521 157.428 166.705 157.508 166.849 157.668C167.001 157.82 167.077 158.012 167.077 158.244C167.077 158.364 167.061 158.48 167.029 158.592C167.005 158.704 166.953 158.876 166.873 159.108L166.309 160.776H165.553L165.997 158.988C165.845 158.932 165.721 158.84 165.625 158.712C165.537 158.576 165.493 158.42 165.493 158.244C165.493 158.004 165.569 157.808 165.721 157.656C165.873 157.504 166.065 157.428 166.297 157.428ZM177.939 155.856C177.939 155.944 177.931 156.06 177.915 156.204H172.755C172.827 156.764 173.071 157.216 173.487 157.56C173.911 157.896 174.435 158.064 175.059 158.064C175.819 158.064 176.431 157.808 176.895 157.296L177.531 158.04C177.243 158.376 176.883 158.632 176.451 158.808C176.027 158.984 175.551 159.072 175.023 159.072C174.351 159.072 173.755 158.936 173.235 158.664C172.715 158.384 172.311 157.996 172.023 157.5C171.743 157.004 171.603 156.444 171.603 155.82C171.603 155.204 171.739 154.648 172.011 154.152C172.291 153.656 172.671 153.272 173.151 153C173.639 152.72 174.187 152.58 174.795 152.58C175.403 152.58 175.943 152.72 176.415 153C176.895 153.272 177.267 153.656 177.531 154.152C177.803 154.648 177.939 155.216 177.939 155.856ZM174.795 153.552C174.243 153.552 173.779 153.72 173.403 154.056C173.035 154.392 172.819 154.832 172.755 155.376H176.835C176.771 154.84 176.551 154.404 176.175 154.068C175.807 153.724 175.347 153.552 174.795 153.552ZM183.234 158.628C183.066 158.772 182.858 158.884 182.61 158.964C182.362 159.036 182.106 159.072 181.842 159.072C181.202 159.072 180.706 158.9 180.354 158.556C180.002 158.212 179.826 157.72 179.826 157.08V153.588H178.746V152.64H179.826V151.248H180.978V152.64H182.802V153.588H180.978V157.032C180.978 157.376 181.062 157.64 181.23 157.824C181.406 158.008 181.654 158.1 181.974 158.1C182.326 158.1 182.626 158 182.874 157.8L183.234 158.628ZM187.308 159.072C186.66 159.072 186.08 158.932 185.568 158.652C185.064 158.372 184.668 157.988 184.38 157.5C184.092 157.004 183.948 156.444 183.948 155.82C183.948 155.196 184.092 154.64 184.38 154.152C184.668 153.656 185.064 153.272 185.568 153C186.08 152.72 186.66 152.58 187.308 152.58C187.884 152.58 188.396 152.696 188.844 152.928C189.3 153.16 189.652 153.496 189.9 153.936L189.024 154.5C188.824 154.196 188.576 153.968 188.28 153.816C187.984 153.664 187.656 153.588 187.296 153.588C186.88 153.588 186.504 153.68 186.168 153.864C185.84 154.048 185.58 154.312 185.388 154.656C185.204 154.992 185.112 155.38 185.112 155.82C185.112 156.268 185.204 156.664 185.388 157.008C185.58 157.344 185.84 157.604 186.168 157.788C186.504 157.972 186.88 158.064 187.296 158.064C187.656 158.064 187.984 157.988 188.28 157.836C188.576 157.684 188.824 157.456 189.024 157.152L189.9 157.704C189.652 158.144 189.3 158.484 188.844 158.724C188.396 158.956 187.884 159.072 187.308 159.072Z" fill="#92929D"/>
<defs>
<clipPath id="clip0_2_596">
<rect width="76" height="76" fill="white" transform="translate(88)"/>
</clipPath>
</defs>
</svg>
